<svg width="84" height="84" viewBox="0 0 84 84" fill="none" xmlns="http://www.w3.org/2000/svg">
<path d="M17.3906 54.3047H19.8516V65.7891C19.8516 67.1482 20.9534 68.25 22.3125 68.25C23.6716 68.25 24.7734 67.1482 24.7734 65.7891V55.5352L39.5391 61.6875V62.5078C39.5391 63.8669 40.6409 64.9688 42 64.9688C43.3591 64.9688 44.4609 63.8669 44.4609 62.5078V31.3359C44.4609 29.9768 43.3591 28.875 42 28.875C40.6409 28.875 39.5391 29.9768 39.5391 31.3359V32.1562L21.8203 39.5391H17.3906C13.3197 39.5391 10.0078 42.851 10.0078 46.9219C10.0078 50.9928 13.3197 54.3047 17.3906 54.3047ZM24.7734 43.6406L39.5391 37.4883V56.3555L24.7734 50.2031V43.6406ZM17.3906 44.4609H19.8516V49.3828H17.3906C16.0337 49.3828 14.9297 48.2788 14.9297 46.9219C14.9297 45.5649 16.0337 44.4609 17.3906 44.4609Z" fill="#274645"/>
<path d="M51.8438 39.5391H71.5313C72.8904 39.5391 73.9922 38.4372 73.9922 37.0781C73.9922 35.719 72.8904 34.6172 71.5313 34.6172H51.8438C50.4847 34.6172 49.3828 35.719 49.3828 37.0781C49.3828 38.4372 50.4847 39.5391 51.8438 39.5391Z" fill="#274645"/>
<path d="M51.8438 49.3828H71.5313C72.8904 49.3828 73.9922 48.281 73.9922 46.9219C73.9922 45.5628 72.8904 44.4609 71.5313 44.4609H51.8438C50.4847 44.4609 49.3828 45.5628 49.3828 46.9219C49.3828 48.281 50.4847 49.3828 51.8438 49.3828Z" fill="#274645"/>
<path d="M51.8438 59.2266H71.5313C72.8904 59.2266 73.9922 58.1247 73.9922 56.7656C73.9922 55.4065 72.8904 54.3047 71.5313 54.3047H51.8438C50.4847 54.3047 49.3828 55.4065 49.3828 56.7656C49.3828 58.1247 50.4847 59.2266 51.8438 59.2266Z" fill="#274645"/>
<path d="M74.9766 0H9.02344C4.04791 0 0 4.04791 0 9.02344V74.9766C0 79.9521 4.04791 84 9.02344 84H74.9766C79.9521 84 84 79.9521 84 74.9766V9.02344C84 4.04791 79.9521 0 74.9766 0ZM4.92188 9.02344C4.92188 6.76184 6.76184 4.92188 9.02344 4.92188H59.3906V13.125H4.92188V9.02344ZM79.0781 74.9766C79.0781 77.2382 77.2382 79.0781 74.9766 79.0781H9.02344C6.76184 79.0781 4.92188 77.2382 4.92188 74.9766V18.0469H79.0781V74.9766ZM79.0781 13.125H64.3125V4.92188H74.9766C77.2382 4.92188 79.0781 6.76184 79.0781 9.02344V13.125Z" fill="#274645"/>
</svg>
