<svg width="92" height="92" viewBox="0 0 92 92" fill="none" xmlns="http://www.w3.org/2000/svg">
<path d="M11.7386 52.2636L18.2681 52.8925C18.9666 55.6681 20.0835 58.3212 21.5805 60.7606L17.4234 65.7806C17.2236 66.0218 17.121 66.3289 17.1356 66.6418C17.1503 66.9547 17.2812 67.2508 17.5026 67.4723L24.5724 74.5419C24.7939 74.7635 25.0901 74.8944 25.403 74.909C25.7158 74.9237 26.023 74.8212 26.2642 74.6214L31.2926 70.4571C33.7332 71.9472 36.382 73.0658 39.1519 73.7763L39.7808 80.2837C39.812 80.5925 39.9579 80.8783 40.1897 81.0846C40.4216 81.2909 40.7224 81.4027 41.0327 81.3977H51.0557C51.366 81.4027 51.6669 81.2909 51.8987 81.0846C52.1305 80.8783 52.2764 80.5925 52.3076 80.2837L52.9365 73.7655C55.7118 73.0693 58.365 71.9544 60.8046 70.4593L65.8244 74.6192C66.0655 74.8192 66.3725 74.922 66.6854 74.9076C66.9982 74.8932 67.2945 74.7625 67.5161 74.5412L74.5859 67.4723C74.8073 67.2508 74.9381 66.9548 74.9528 66.642C74.9675 66.3291 74.8649 66.0221 74.6652 65.7809L70.5018 60.7524C71.992 58.3114 73.1107 55.6623 73.8212 52.8921L80.2628 52.2632C80.5737 52.2329 80.8623 52.0879 81.0722 51.8565C81.2821 51.6251 81.3984 51.3239 81.3984 51.0115V40.9885C81.3985 40.6758 81.282 40.3743 81.0718 40.1429C80.8615 39.9114 80.5726 39.7665 80.2614 39.7365L73.7319 39.1076C73.0334 36.332 71.9165 33.6788 70.4195 31.2394L74.5766 26.2195C74.7755 25.9793 74.8781 25.6738 74.8645 25.3623C74.8509 25.0507 74.722 24.7554 74.5029 24.5335L67.5226 17.4637C67.3016 17.2398 67.0047 17.1069 66.6905 17.0912C66.3763 17.0754 66.0676 17.178 65.8253 17.3787L60.7969 21.5429C58.3562 20.0529 55.7075 18.9342 52.9376 18.2237L52.3087 11.7164C52.2775 11.4076 52.1316 11.1217 51.8998 10.9154C51.6679 10.7091 51.3671 10.5974 51.0568 10.6023H41.0338C40.7235 10.5974 40.4226 10.7091 40.1908 10.9154C39.959 11.1217 39.813 11.4076 39.7819 11.7164L39.153 18.2345C36.3778 18.9308 33.7247 20.0456 31.2852 21.5408L26.2642 17.3815C26.0232 17.1816 25.7162 17.0787 25.4033 17.0931C25.0904 17.1075 24.7941 17.2381 24.5724 17.4594L17.5026 24.5284C17.2813 24.7499 17.1504 25.046 17.1358 25.3588C17.1211 25.6716 17.2237 25.9786 17.4234 26.2198L21.5877 31.2477C20.0977 33.6883 18.979 36.337 18.2685 39.1068L11.7386 39.7358C11.4272 39.7658 11.1382 39.9108 10.928 40.1424C10.7178 40.374 10.6014 40.6757 10.6016 40.9885V51.0115C10.6015 51.3242 10.718 51.6257 10.9282 51.8572C11.1385 52.0887 11.4274 52.2335 11.7386 52.2636ZM13.1172 42.131L19.4079 41.5247C19.6734 41.4991 19.9239 41.3898 20.1231 41.2125C20.3224 41.0352 20.4602 40.7991 20.5165 40.5384C21.2062 37.4365 22.4514 34.485 24.192 31.8264C24.337 31.6018 24.4066 31.3368 24.3908 31.0699C24.375 30.803 24.2745 30.5482 24.104 30.3422L20.0912 25.4977L25.5417 20.0472L30.387 24.0602C30.5954 24.2328 30.8539 24.3336 31.1241 24.3476C31.3943 24.3616 31.6618 24.2881 31.887 24.138C34.5333 22.3868 37.4825 21.1438 40.5839 20.4724C40.843 20.4209 41.0787 20.2875 41.2563 20.0919C41.4338 19.8963 41.5439 19.6488 41.5702 19.386L42.1757 13.1172H49.9138L50.52 19.3854C50.546 19.6496 50.6557 19.8986 50.8331 20.096C51.0105 20.2935 51.2464 20.429 51.5063 20.483C54.608 21.1706 57.5595 22.414 60.2183 24.1529C60.4432 24.2975 60.7084 24.3666 60.9753 24.3502C61.2422 24.3339 61.4969 24.2329 61.7025 24.062L66.5422 20.0531L71.9135 25.4925L67.896 30.344C67.7235 30.5524 67.6227 30.8109 67.6088 31.0811C67.5948 31.3513 67.6683 31.6188 67.8184 31.8439C69.5694 34.4902 70.8125 37.4394 71.484 40.5408C71.5404 40.8014 71.6782 41.0374 71.8774 41.2147C72.0767 41.392 72.3272 41.5013 72.5927 41.5269L78.8828 42.131V49.8705L72.6802 50.4755C72.415 50.5014 72.1648 50.6108 71.9658 50.7881C71.7668 50.9653 71.6292 51.2012 71.5729 51.4616C70.8832 54.5635 69.638 57.515 67.8974 60.1736C67.7525 60.3982 67.6828 60.6632 67.6987 60.9301C67.7145 61.197 67.815 61.4519 67.9855 61.6578L71.9983 66.5024L66.548 71.9528L61.7025 67.94C61.4941 67.7675 61.2356 67.6667 60.9654 67.6526C60.6952 67.6386 60.4276 67.7121 60.2025 67.8622C57.5562 69.6134 54.607 70.8565 51.5056 71.5279C51.2465 71.5793 51.0108 71.7127 50.8332 71.9083C50.6556 72.1039 50.5456 72.3514 50.5193 72.6143L49.9138 78.8828H42.1757L41.5694 72.6146C41.5435 72.3504 41.4338 72.1015 41.2564 71.904C41.0789 71.7066 40.8431 71.571 40.5831 71.5171C37.4815 70.8294 34.53 69.586 31.8712 67.8471C31.6462 67.7026 31.3811 67.6334 31.1142 67.6498C30.8473 67.6661 30.5926 67.7671 30.387 67.9381L25.5417 71.9521L20.0912 66.5024L24.104 61.6573C24.2765 61.4489 24.3773 61.1904 24.3912 60.9202C24.4052 60.65 24.3317 60.3825 24.1816 60.1574C22.4306 57.5111 21.1875 54.5619 20.516 51.4605C20.4596 51.1999 20.3218 50.9638 20.1226 50.7866C19.9233 50.6093 19.6728 50.5 19.4073 50.4744L13.1172 49.8691V42.131Z" fill="#274645"/>
<path d="M46.0445 66.7718C50.1528 66.7718 54.1688 65.5535 57.5847 63.2711C61.0006 60.9886 63.6629 57.7445 65.2351 53.9489C66.8072 50.1533 67.2186 45.9768 66.417 41.9475C65.6155 37.9181 63.6372 34.217 60.7322 31.312C57.8272 28.407 54.126 26.4287 50.0967 25.6272C46.0673 24.8258 41.8908 25.2371 38.0952 26.8093C34.2997 28.3815 31.0556 31.0439 28.7731 34.4598C26.4907 37.8757 25.2725 41.8917 25.2725 46C25.2787 51.5071 27.4692 56.7869 31.3634 60.681C35.2576 64.5752 40.5374 66.7656 46.0445 66.7718ZM46.0445 27.7437C49.6552 27.7438 53.1849 28.8145 56.1871 30.8206C59.1893 32.8266 61.5292 35.6778 62.9109 39.0137C64.2927 42.3496 64.6542 46.0203 63.9498 49.5617C63.2453 53.1031 61.5066 56.356 58.9534 58.9092C56.4002 61.4623 53.1472 63.201 49.6059 63.9054C46.0645 64.6098 42.3938 64.2483 39.0579 62.8665C35.722 61.4847 32.8708 59.1448 30.8648 56.1426C28.8588 53.1404 27.7881 49.6107 27.7881 46C27.7936 41.1598 29.7189 36.5195 33.1414 33.0969C36.564 29.6744 41.2043 27.7493 46.0445 27.7437Z" fill="#274645"/>
<path d="M42.8077 51.9766C43.0427 52.206 43.358 52.3344 43.6864 52.3344C44.0147 52.3344 44.3301 52.206 44.565 51.9766L54.9646 41.8233C55.0843 41.7083 55.18 41.5707 55.2462 41.4185C55.3124 41.2663 55.3478 41.1025 55.3504 40.9365C55.3531 40.7706 55.3228 40.6057 55.2614 40.4515C55.2 40.2973 55.1087 40.1568 54.9928 40.038C54.8768 39.9192 54.7385 39.8246 54.5858 39.7595C54.4331 39.6945 54.269 39.6603 54.1031 39.6589C53.9371 39.6576 53.7725 39.6891 53.6187 39.7516C53.465 39.8142 53.3252 39.9066 53.2073 40.0234L43.6864 49.3188L38.7928 44.5409C38.6746 44.4256 38.5348 44.3346 38.3814 44.2732C38.2281 44.2118 38.0641 44.1813 37.899 44.1832C37.7338 44.1852 37.5706 44.2197 37.4188 44.2848C37.267 44.3498 37.1294 44.4441 37.014 44.5623C36.8986 44.6805 36.8077 44.8203 36.7463 44.9736C36.6849 45.127 36.6544 45.2909 36.6563 45.4561C36.6583 45.6213 36.6928 45.7844 36.7579 45.9363C36.8229 46.0881 36.9172 46.2257 37.0354 46.3411L42.8077 51.9766Z" fill="#274645"/>
</svg>
