<svg width="558" height="525" viewBox="0 0 558 525" fill="none" xmlns="http://www.w3.org/2000/svg">
<path d="M504.585 44.2679C541.348 89.9105 530.121 174.899 524.083 253.85C518.044 332.8 517.542 405.728 480.779 455.28C443.89 504.869 370.985 530.897 305.109 523.862C239.233 516.708 180.511 476.372 122.551 426.783C64.5902 377.194 7.30973 318.522 9.03184 261.491C10.7539 204.46 71.4564 149.24 129.439 103.605C187.422 57.9696 242.684 21.9418 312.736 7.13904C382.788 -7.66375 467.852 -1.3672 504.585 44.2679Z" fill="#F7F7F7"/>
<path d="M500.675 107.507H57.613V428.845H500.675V107.507Z" fill="#C3DCD7"/>
<path d="M500.675 107.507H57.613V142.744H500.675V107.507Z" fill="#9ACEC5"/>
<path d="M421.067 125.125C421.068 126.859 420.555 128.555 419.592 129.998C418.63 131.44 417.261 132.565 415.659 133.229C414.057 133.893 412.294 134.067 410.592 133.73C408.891 133.392 407.329 132.557 406.102 131.33C404.876 130.104 404.041 128.542 403.703 126.841C403.365 125.14 403.539 123.377 404.204 121.775C404.868 120.173 405.993 118.804 407.435 117.842C408.878 116.879 410.574 116.366 412.308 116.368C414.63 116.37 416.857 117.293 418.499 118.935C420.141 120.577 421.065 122.803 421.067 125.125Z" fill="#357B6F"/>
<path d="M454.74 125.125C454.741 126.859 454.229 128.554 453.266 129.997C452.304 131.439 450.936 132.564 449.334 133.228C447.732 133.893 445.97 134.067 444.269 133.73C442.568 133.393 441.005 132.558 439.779 131.333C438.552 130.107 437.716 128.546 437.378 126.845C437.039 125.145 437.212 123.382 437.875 121.78C438.538 120.178 439.662 118.809 441.104 117.845C442.545 116.882 444.24 116.368 445.974 116.368C448.298 116.368 450.526 117.29 452.17 118.932C453.814 120.574 454.738 122.802 454.74 125.125Z" fill="#357B6F"/>
<path d="M488.414 125.125C488.415 126.86 487.901 128.557 486.938 130C485.974 131.443 484.604 132.567 483.001 133.231C481.397 133.895 479.633 134.068 477.931 133.728C476.23 133.388 474.667 132.551 473.442 131.322C472.216 130.094 471.383 128.53 471.047 126.827C470.712 125.125 470.889 123.361 471.557 121.76C472.225 120.158 473.353 118.791 474.799 117.831C476.244 116.871 477.942 116.362 479.677 116.368C482.001 116.368 484.229 117.29 485.873 118.932C487.517 120.574 488.441 122.802 488.443 125.125" fill="#357B6F"/>
<path d="M445.56 185.046C440.948 185.046 439.729 194.195 431.517 194.195H383.099V242.86H460.535V185.046H445.56Z" fill="#F4F7FF"/>
<path d="M346.772 185.046C342.16 185.046 340.94 194.195 332.729 194.195H284.31V242.86H361.746V185.046H346.772Z" fill="#F4F7FF"/>
<path d="M233.941 194.195H185.515V242.86H262.958V185.046H247.976C243.372 185.046 242.152 194.195 233.933 194.195" fill="#F4F7FF"/>
<path d="M360.771 285.162L342.13 353.028L403.409 341.151L360.771 285.162Z" stroke="#EAF0FF" stroke-width="3" stroke-linecap="round" stroke-linejoin="round"/>
<path d="M281.576 455.716C294.634 455.716 305.22 445.131 305.22 432.074C305.22 419.017 294.634 408.433 281.576 408.433C268.518 408.433 257.932 419.017 257.932 432.074C257.932 445.131 268.518 455.716 281.576 455.716Z" stroke="#EAF0FF" stroke-width="3" stroke-linecap="round" stroke-linejoin="round"/>
<path d="M312.263 406.363C319.207 406.363 324.835 400.735 324.835 393.792C324.835 386.85 319.207 381.222 312.263 381.222C305.32 381.222 299.691 386.85 299.691 393.792C299.691 400.735 305.32 406.363 312.263 406.363Z" stroke="#EAF0FF" stroke-width="3" stroke-linecap="round" stroke-linejoin="round"/>
<path d="M171.472 79.1871L241.08 93.9678L152.492 160.481L171.472 79.1871Z" stroke="#3CC5AC" stroke-width="3" stroke-linecap="round" stroke-linejoin="round"/>
<path d="M558 273.345H431.517V460.904H558V273.345Z" fill="white"/>
<path d="M534.194 331.086C534.194 338.885 531.88 346.51 527.546 352.995C523.213 359.48 517.053 364.535 509.846 367.519C502.639 370.504 494.709 371.284 487.058 369.762C479.408 368.24 472.38 364.483 466.865 358.968C461.35 353.452 457.594 346.425 456.073 338.775C454.553 331.124 455.335 323.195 458.321 315.99C461.307 308.784 466.363 302.626 472.85 298.293C479.336 293.961 486.962 291.65 494.762 291.651C505.221 291.653 515.25 295.809 522.645 303.204C530.039 310.599 534.194 320.628 534.194 331.086Z" fill="#8CCBC0"/>
<path d="M543.905 388.523H445.62V410.125H543.905V388.523Z" fill="#CCF0EA"/>
<path d="M543.905 425.43H445.62V447.032H543.905V425.43Z" fill="#CCF0EA"/>
<path d="M28.0859 411.485C27.8937 415.734 24.7599 446.145 20.9314 457.63C33.7548 455.938 103.637 442.11 124.657 429.961C122.987 418.594 34.2278 410.302 28.0859 411.485Z" fill="#3C3744"/>
<path d="M69.7417 184.019C69.7417 187.775 68.6277 191.447 66.5405 194.571C64.4533 197.694 61.4867 200.128 58.0158 201.566C54.5449 203.004 50.7257 203.38 47.041 202.647C43.3564 201.914 39.9718 200.105 37.3153 197.449C34.6588 194.793 32.8497 191.408 32.1168 187.724C31.3839 184.04 31.7601 180.221 33.1977 176.75C34.6354 173.28 37.07 170.313 40.1937 168.226C43.3174 166.139 46.9899 165.026 50.7468 165.026C53.2415 165.025 55.712 165.515 58.017 166.469C60.322 167.423 62.4163 168.822 64.1804 170.586C65.9444 172.35 67.3435 174.444 68.2978 176.749C69.252 179.054 69.7427 181.524 69.7417 184.019Z" fill="#EECB55"/>
<path d="M129.129 216.95C130.481 216.314 132.447 212.035 132.447 205.694C132.447 189.931 120.474 182.541 101.324 182.541C87.9532 182.541 72.1955 187.536 62.1511 206.293C54.6492 220.231 51.5967 251.004 45.3365 262.075C41.3749 269.074 32.9714 283.248 26.519 296.58C24.0947 299.965 11.9069 325.787 30.5175 334.271C49.1281 342.755 135.551 339.267 137.85 335.623C140.149 331.98 127.229 305.959 122.979 300.689C118.729 295.42 112.632 288.717 116.106 262.799C119.579 236.881 116.438 221.606 119.417 220.372C122.395 219.137 126.01 219.063 129.129 216.95Z" fill="#EECB55"/>
<path d="M81.0943 235.086C81.0943 236.68 80.6214 238.239 79.7353 239.565C78.8493 240.891 77.5899 241.924 76.1165 242.535C74.6431 243.145 73.0218 243.305 71.4576 242.994C69.8934 242.682 68.4566 241.915 67.3289 240.787C66.2012 239.659 65.4332 238.223 65.122 236.659C64.8109 235.095 64.9706 233.473 65.5809 232C66.1912 230.527 67.2247 229.268 68.5508 228.382C69.8768 227.496 71.4359 227.023 73.0307 227.023C75.1687 227.025 77.2186 227.875 78.7304 229.387C80.2422 230.898 81.0924 232.948 81.0943 235.086Z" fill="white"/>
<path d="M25.026 408.433C24.8338 412.682 21.7 443.093 17.8715 454.578" stroke="#1B3C87" stroke-width="3.69" stroke-linecap="round" stroke-linejoin="round"/>
<path d="M203.682 282.783C209.927 272.894 208.116 261.491 205.433 265.002C204.539 266.177 192.869 289.818 190.541 292.22C188.73 292.279 187.289 292.516 186.682 293.011C184.317 294.932 185.204 308.397 184.317 309.58C183.43 310.762 149.69 362.554 148.205 364.18C148.057 364.771 143.77 344.802 142.462 341.27C139.092 343.989 130.703 348.8 128.175 349.621C128.463 351.904 129.882 380.135 128.175 389.307C129.609 392.144 138.271 400.747 141.952 400.747C149.04 400.747 156.579 398.02 158.56 396.653C166.83 390.977 198.745 317.687 201.08 316.165C205.744 313.105 213.512 302.552 214.598 295.871C214.598 292.915 217.023 290.986 203.66 282.761" fill="white"/>
<path d="M109.468 292.893C130.289 286.094 149.232 333.362 147.754 337.175C146.276 340.989 125.256 352.385 120.673 351.779C116.091 351.173 101.383 295.516 109.468 292.878" fill="#46DBC9"/>
<path d="M106.431 289.84C127.251 283.041 146.194 330.317 144.716 334.123C143.238 337.929 122.218 349.332 117.636 348.741C113.053 348.15 98.3006 292.479 106.431 289.84Z" stroke="#1B3C87" stroke-width="3.69" stroke-linecap="round" stroke-linejoin="round"/>
<path d="M84.4055 281.075C143.334 282.457 128.449 414.057 125.743 418.757C122.1 425.083 46.6595 430.825 28.6698 413.177C24.5086 409.098 28.4628 279.767 84.4055 281.075Z" fill="#46DBC9"/>
<path d="M74.5237 278.541C76.777 278.14 79.0652 277.969 81.353 278.031C99.461 278.452 110.599 291.171 117.266 308.73" stroke="#1B3C87" stroke-width="3.69" stroke-linecap="round" stroke-linejoin="round"/>
<path d="M125.943 356.346C127.539 386.18 123.896 413.606 122.691 415.705C119.047 422.031 43.607 427.773 25.6173 410.125C21.8331 406.43 24.7599 299.019 67.4579 280.669" stroke="#1B3C87" stroke-width="3.69" stroke-linecap="round" stroke-linejoin="round"/>
<path d="M124.169 202.391C124.287 209.707 73.282 216.632 73.0011 227.023C72.7203 237.414 72.5503 243.415 72.5503 243.415C74.3759 253.103 70.4217 287.357 69.3056 290.934C73.585 294.918 95.0485 294.629 97.3915 292.22C97.0885 289.811 97.1328 273.404 97.7463 271.527C98.6479 271.648 99.5565 271.71 100.466 271.712C116.882 271.712 130.193 252.342 130.193 228.442C130.193 215.952 129.986 212.649 124.184 202.369" fill="white"/>
<path d="M53.9914 285.074C76.8075 292.161 63.1489 347.426 58.7882 349.606C54.4275 351.786 11.6926 339.577 10.8205 334.781C9.94832 329.985 24.9225 276.035 53.9914 285.074Z" fill="#46DBC9"/>
<path d="M63.7697 310.504C63.585 327.302 58.1895 345.327 55.7357 346.554C51.375 348.734 8.64011 336.525 7.76797 331.729C7.50928 330.317 8.61794 324.671 11.057 317.621" stroke="#1B3C87" stroke-width="3.69" stroke-linecap="round" stroke-linejoin="round"/>
<path d="M23.0748 294.046C30.0667 284.778 39.3941 278.43 50.9389 282.021C51.8735 282.308 52.7753 282.692 53.6292 283.167" stroke="#1B3C87" stroke-width="3.69" stroke-linecap="round" stroke-linejoin="round"/>
<path d="M161.376 336.865C170.755 322.587 180.807 307.208 181.287 306.565C182.174 305.382 181.287 291.917 183.652 289.996C186.017 288.074 201.095 289.996 201.095 291.71C201.095 293.425 194.938 299.1 193.43 299.522" stroke="#1B3C87" stroke-width="3.69" stroke-linecap="round" stroke-linejoin="round"/>
<path d="M139.594 338.72C140.902 342.26 145.027 361.763 145.174 361.172C145.551 360.75 148.027 357.077 151.523 351.816" stroke="#1B3C87" stroke-width="3.69" stroke-linecap="round" stroke-linejoin="round"/>
<path d="M200.629 279.73C206.875 269.842 205.064 258.439 202.381 261.949C201.487 263.124 189.816 286.766 187.488 289.168" stroke="#1B3C87" stroke-width="3.69" stroke-linecap="round" stroke-linejoin="round"/>
<path d="M202.714 282.31C201.878 283.891 198.05 290.269 198.05 290.269" stroke="#1B3C87" stroke-width="3.69" stroke-linecap="round" stroke-linejoin="round"/>
<path d="M206.808 284.83C205.184 288.506 203.273 292.05 201.095 295.427" stroke="#1B3C87" stroke-width="3.69" stroke-linecap="round" stroke-linejoin="round"/>
<path d="M210.482 287.579C208.58 291.705 206.397 295.695 203.948 299.522" stroke="#1B3C87" stroke-width="3.69" stroke-linecap="round" stroke-linejoin="round"/>
<path d="M200.585 311.043C199.805 311.816 198.957 312.516 198.05 313.135C195.714 314.664 163.8 387.947 155.529 393.63C153.548 394.99 146.01 397.717 138.922 397.717C135.226 397.717 127.369 390.326 125.943 387.511" stroke="#1B3C87" stroke-width="3.69" stroke-linecap="round" stroke-linejoin="round"/>
<path d="M211.568 292.841C211.117 295.627 209.499 299.086 207.436 302.397" stroke="#1B3C87" stroke-width="3.69" stroke-linecap="round" stroke-linejoin="round"/>
<path d="M120.474 252.785C115.019 262.489 106.734 268.682 97.4506 268.682C91.5378 268.682 86.0019 266.154 81.3604 261.802" stroke="#1B3C87" stroke-width="3.69" stroke-linecap="round" stroke-linejoin="round"/>
<path d="M121.131 199.339C125.172 207.428 127.227 216.363 127.126 225.404C127.139 229.966 126.643 234.514 125.647 238.966" stroke="#1B3C87" stroke-width="3.69" stroke-linecap="round" stroke-linejoin="round"/>
<path d="M74.5237 238.64C73.3726 239.433 72.0349 239.913 70.6422 240.031C69.2495 240.15 67.8499 239.904 66.5811 239.318C65.3123 238.732 64.2181 237.825 63.4062 236.688C62.5943 235.55 62.0926 234.22 61.9507 232.83C61.8087 231.44 62.0313 230.036 62.5965 228.758C63.1617 227.48 64.0501 226.371 65.1742 225.54C66.2983 224.71 67.6193 224.186 69.0073 224.021C70.3952 223.856 71.8022 224.055 73.0898 224.599" stroke="#1B3C87" stroke-width="3.69" stroke-linecap="round" stroke-linejoin="round"/>
<path d="M99.0914 222.943C99.0914 224.651 98.3523 226.04 97.4063 226.04C96.4602 226.04 95.7285 224.651 95.7285 222.943C95.7285 221.236 96.4676 219.839 97.4063 219.839C98.3449 219.839 99.0914 221.229 99.0914 222.943Z" fill="#1B3C87"/>
<path d="M114.443 237.421C114.725 237.977 115.072 238.498 115.477 238.973" stroke="#1B3C87" stroke-width="3.69" stroke-linecap="round" stroke-linejoin="round"/>
<path d="M112.794 227.887C112.636 230.157 112.843 232.438 113.408 234.642" stroke="#1B3C87" stroke-width="3.69" stroke-linecap="round" stroke-linejoin="round"/>
<path d="M89.6383 243.54C89.9635 245.713 92.3582 248.536 95.7211 249.622" stroke="#1B3C87" stroke-width="3.69" stroke-linecap="round" stroke-linejoin="round"/>
<path d="M94.339 289.168C94.036 286.759 94.0803 270.352 94.6938 268.475" stroke="#1B3C87" stroke-width="3.69" stroke-linecap="round" stroke-linejoin="round"/>
<path d="M68.3226 273.345C67.5835 280.625 66.6966 286.507 66.2679 287.882C67.9678 289.464 72.3655 290.365 77.2066 290.735" stroke="#1B3C87" stroke-width="3.69" stroke-linecap="round" stroke-linejoin="round"/>
<path d="M69.5126 240.37C70.2517 244.131 70.0595 251.596 69.5126 259.533" stroke="#1B3C87" stroke-width="3.69" stroke-linecap="round" stroke-linejoin="round"/>
<path d="M33.6365 193.737C31.4934 191.38 29.9777 188.522 29.2291 185.426C28.4805 182.33 28.523 179.095 29.3526 176.02C30.1823 172.944 31.7725 170.127 33.9767 167.827C36.181 165.528 38.9285 163.82 41.9662 162.86" stroke="#1B3C87" stroke-width="3.69" stroke-linecap="round" stroke-linejoin="round"/>
<path d="M65.1962 173.584C66.5681 176.829 67.0109 180.391 66.4752 183.874C65.9395 187.356 64.4463 190.621 62.1625 193.304C59.8787 195.987 56.894 197.982 53.5417 199.068C50.1894 200.153 46.6014 200.285 43.1783 199.45" stroke="#1B3C87" stroke-width="3.69" stroke-linecap="round" stroke-linejoin="round"/>
<path d="M113.962 181.661C123.718 184.913 129.395 191.808 129.395 202.642C129.395 208.983 127.429 213.262 126.069 213.898" stroke="#1B3C87" stroke-width="3.69" stroke-linecap="round" stroke-linejoin="round"/>
<path d="M47.6943 242.979C51.035 229.506 54.0579 212.567 59.0838 203.204C68.5074 185.622 82.9421 180.139 95.7285 179.555" stroke="#1B3C87" stroke-width="3.69" stroke-linecap="round" stroke-linejoin="round"/>
<path d="M23.4665 293.528C27.9011 284.357 33.267 274.779 37.5094 267.426" stroke="#1B3C87" stroke-width="3.69" stroke-linecap="round" stroke-linejoin="round"/>
<path d="M112.573 283.167C112.89 286.086 113.371 288.532 114.051 289.863" stroke="#1B3C87" stroke-width="3.69" stroke-linecap="round" stroke-linejoin="round"/>
<path d="M112.735 262.496C112.196 264.366 111.93 270.389 112.122 276.412" stroke="#1B3C87" stroke-width="3.69" stroke-linecap="round" stroke-linejoin="round"/>
<path d="M123.12 194.52C123.12 209.84 69.9634 211.222 69.9634 223.971" stroke="#1B3C87" stroke-width="3.69" stroke-linecap="round" stroke-linejoin="round"/>
<path d="M149.809 418.572C154.931 419.429 157.85 410.997 160.969 411.448C163.246 411.773 174.132 413.17 174.613 413.924C175.093 414.678 173.312 422.526 173.312 422.526" fill="#EAF0FF"/>
<path d="M95.863 409.481L87.7723 457.567L165.221 470.595L173.312 422.51L95.863 409.481Z" fill="#EAF0FF"/>
<path d="M165.81 445.946L162.174 467.555L117.266 460.002" stroke="#1B3C87" stroke-width="3.69" stroke-linecap="round" stroke-linejoin="round"/>
<path d="M170.267 419.474L168.744 428.512" stroke="#1B3C87" stroke-width="3.69" stroke-linecap="round" stroke-linejoin="round"/>
<path d="M91.7817 455.716L84.7233 454.504L92.8534 406.415L158.804 417.501" stroke="#1B3C87" stroke-width="3.69" stroke-linecap="round" stroke-linejoin="round"/>
<path d="M146.756 415.52C151.878 416.377 154.805 407.945 157.917 408.396C160.193 408.721 171.08 410.118 171.56 410.871C172.041 411.625 170.26 419.474 170.26 419.474" stroke="#1B3C87" stroke-width="3.69" stroke-linecap="round" stroke-linejoin="round"/>
<path d="M150.204 424.016L146.749 444.546L158.003 446.439L161.457 425.909L150.204 424.016Z" fill="#FB5D64"/>
<path d="M99.4906 419.474L143.711 426.908" stroke="#1B3C87" stroke-width="3.69" stroke-linecap="round" stroke-linejoin="round"/>
<path d="M135.455 435.178L142.033 436.287" stroke="#1B3C87" stroke-width="3.69" stroke-linecap="round" stroke-linejoin="round"/>
<path d="M97.8202 428.852L123.223 433.124" stroke="#1B3C87" stroke-width="3.69" stroke-linecap="round" stroke-linejoin="round"/>
<path d="M147.51 421.55C146.357 412.682 143.689 403.267 124.834 404.08C122.284 402.033 72.7646 387.991 42.9049 380.246C46.3787 373.07 50.4289 351.202 50.6359 349.207C48.4186 348.793 15.6985 338.727 15.6985 338.727C15.6985 338.727 2.01775 395.928 4.98894 400.71C23.2965 412.372 91.9739 420.775 122.979 418.594C125.152 420.302 124.857 421.373 127.939 421.809C131.021 422.245 147.51 421.55 147.51 421.55Z" fill="white"/>
<path d="M88.4262 390.467C106.076 395.522 120.437 399.934 121.774 401.028C140.644 400.215 143.305 409.593 144.458 418.498" stroke="#1B3C87" stroke-width="3.69" stroke-linecap="round" stroke-linejoin="round"/>
<path d="M47.5834 346.184C47.3691 348.15 43.3188 370.018 39.8524 377.223C50.2442 379.906 63.0232 383.357 75.3736 386.831" stroke="#1B3C87" stroke-width="3.69" stroke-linecap="round" stroke-linejoin="round"/>
<path d="M128.131 410.162C128.986 413.2 129.299 416.364 129.055 419.511" stroke="#1B3C87" stroke-width="3.69" stroke-linecap="round" stroke-linejoin="round"/>
<path d="M133.822 410.162C134.685 413.198 134.997 416.364 134.746 419.511" stroke="#1B3C87" stroke-width="3.69" stroke-linecap="round" stroke-linejoin="round"/>
<path d="M138.412 410.162C139.268 413.199 139.578 416.365 139.328 419.511" stroke="#1B3C87" stroke-width="3.69" stroke-linecap="round" stroke-linejoin="round"/>
<path d="M2.69772 383.054C1.4043 391.021 0.857359 396.978 1.95862 397.658C27.5537 413.916 104.908 416.459 119.949 415.542" stroke="#1B3C87" stroke-width="3.69" stroke-linecap="round" stroke-linejoin="round"/>
<path d="M12.646 335.705C12.3652 336.695 9.72659 347.78 7.07321 360.322" stroke="#1B3C87" stroke-width="3.69" stroke-linecap="round" stroke-linejoin="round"/>
</svg>
