<svg width="52" height="52" viewBox="0 0 52 52" fill="none" xmlns="http://www.w3.org/2000/svg">
<path d="M9.81348 24.1834C9.9604 24.3257 10.1571 24.4054 10.3617 24.4039C10.5655 24.4023 10.7614 24.3201 10.906 24.1755C11.0505 24.0309 11.1319 23.8358 11.1335 23.6311C11.1351 23.4265 11.0561 23.2297 10.9131 23.0836L2.74352 14.9121L5.42142 12.2636L7.63324 14.4752L17.7184 24.5635L1.75219 40.5335C1.55944 40.7262 1.40696 40.9546 1.30269 41.2066C1.19842 41.4579 1.14469 41.7281 1.14469 41.9999C1.14469 42.2725 1.19842 42.5427 1.30269 42.794C1.40696 43.046 1.55944 43.2744 1.75219 43.4672L9.02908 50.7458C9.41852 51.1338 9.94543 51.3518 10.4952 51.3518C11.045 51.3518 11.5719 51.1338 11.9613 50.7458L27.9283 34.775L39.4385 46.2887C39.4717 46.3211 39.5081 46.3503 39.5468 46.3764C39.557 46.3843 39.5673 46.3906 39.5784 46.3977C39.6115 46.4183 39.6463 46.4373 39.6826 46.4531C39.6882 46.4546 39.6937 46.4586 39.6992 46.461C39.7332 46.4744 39.768 46.4855 39.8035 46.4941L48.1105 48.5413C48.24 48.573 48.3767 48.5714 48.5055 48.535C48.6342 48.4995 48.7519 48.4307 48.8459 48.3359C48.9407 48.2411 49.0095 48.1242 49.0458 47.9946C49.0813 47.8658 49.0837 47.7299 49.0513 47.5995L47.0046 39.2906C46.9959 39.255 46.9848 39.2211 46.9714 39.1871C46.969 39.1816 46.9659 39.176 46.9635 39.1705C46.9477 39.1341 46.9295 39.0994 46.9082 39.0662C46.9019 39.0551 46.8948 39.0441 46.8869 39.0338C46.8608 38.9951 46.8316 38.9595 46.7992 38.9263L35.289 27.4127L51.1589 11.5399C51.3516 11.3471 51.5041 11.1187 51.6083 10.8667C51.7126 10.6154 51.7663 10.3452 51.7663 10.0734C51.7663 9.80081 51.7126 9.53137 51.6083 9.27933C51.5041 9.02807 51.3516 8.79893 51.1589 8.60614L43.8819 1.32752C43.4933 0.939569 42.9656 0.721497 42.4158 0.721497C41.866 0.721497 41.3391 0.939569 40.9497 1.32752L36.778 5.50017L25.0798 17.2011L12.2441 4.36318C12.0988 4.217 11.9005 4.13483 11.6944 4.13483C11.4882 4.13483 11.2907 4.217 11.1445 4.36318L10.7646 4.74323L9.7116 3.67261C9.34981 3.30283 8.91851 3.00969 8.44217 2.80979C7.96584 2.60989 7.45471 2.50797 6.93809 2.50876H6.93495C6.16476 2.50876 5.41197 2.7371 4.77212 3.16535C4.13148 3.5936 3.63303 4.2012 3.33838 4.9131C3.04374 5.625 2.96632 6.40802 3.1164 7.16337C3.26649 7.91873 3.63776 8.61246 4.18203 9.15686L5.26029 10.2354L1.09494 14.3559C1.02226 14.4278 0.963803 14.5139 0.924306 14.6087C0.884809 14.7027 0.86428 14.8047 0.86428 14.9066C0.86349 15.0093 0.884008 15.1112 0.922715 15.206C0.962212 15.3001 1.01908 15.3862 1.09175 15.4589L9.81348 24.1834ZM45.1506 39.4771L39.9891 44.6389L9.28264 13.9253L14.4433 8.76338L45.1506 39.4771ZM10.8625 49.6467C10.7646 49.7431 10.6327 49.7977 10.4952 49.7977C10.3578 49.7977 10.2258 49.7431 10.1287 49.6467L2.85176 42.3673C2.80357 42.3191 2.76568 42.2622 2.73961 42.1998C2.71354 42.1366 2.70008 42.0694 2.70008 42.0007C2.70008 41.9328 2.71354 41.8656 2.73961 41.8024C2.76568 41.74 2.80357 41.6823 2.85176 41.6341L13.734 30.7494L17.2073 34.2235C17.2792 34.297 17.3645 34.3555 17.4593 34.395C17.5541 34.4353 17.656 34.4558 17.7579 34.4558C17.8606 34.4566 17.9625 34.4369 18.0573 34.3973C18.1521 34.3586 18.239 34.301 18.3116 34.2283C18.3835 34.1556 18.4412 34.0695 18.4807 33.9746C18.5194 33.879 18.5392 33.7779 18.5392 33.6752C18.5384 33.5725 18.5178 33.4705 18.4775 33.3765C18.438 33.2817 18.3796 33.1956 18.3069 33.1237L14.8336 29.6495L18.8188 25.6633L26.8288 33.676L10.8625 49.6467ZM41.5137 45.3137L45.8252 41.002L47.2344 46.7233L41.5137 45.3137ZM29.4632 15.0164L32.9366 18.4906C33.0085 18.5641 33.0945 18.6225 33.1885 18.662C33.2833 18.7015 33.3853 18.7229 33.488 18.7229C33.5906 18.7237 33.6918 18.7031 33.7865 18.6644C33.8821 18.6249 33.9682 18.568 34.0409 18.4953C34.1128 18.4226 34.1705 18.3365 34.21 18.2417C34.2487 18.1461 34.2684 18.045 34.2684 17.9422C34.2676 17.8395 34.2471 17.7376 34.2076 17.6428C34.1673 17.5488 34.1088 17.4626 34.0361 17.3907L30.5628 13.9166L37.3278 7.14994L39.3833 9.20584C39.4552 9.28011 39.5412 9.33858 39.636 9.37888C39.7308 9.41918 39.8327 9.44051 39.9354 9.4413C40.0381 9.44209 40.1408 9.42234 40.2356 9.38283C40.3312 9.34411 40.4173 9.28644 40.4908 9.21375C40.5634 9.14105 40.6211 9.05414 40.6598 8.95854C40.6993 8.86372 40.719 8.761 40.7182 8.65829C40.7174 8.55557 40.6961 8.45365 40.6558 8.35883C40.6156 8.26402 40.5563 8.17789 40.4828 8.10599L38.4274 6.05009L42.0493 2.42738C42.1465 2.33098 42.2784 2.27646 42.4158 2.27646C42.5533 2.27646 42.6852 2.33098 42.7824 2.42738L50.0593 9.70678C50.1564 9.80397 50.2109 9.93592 50.2109 10.0734C50.2109 10.2109 50.1564 10.342 50.0593 10.44L34.1894 26.3136L26.1794 18.3018L29.4632 15.0164ZM13.3445 7.66352L8.18307 12.8254L6.53367 11.1756L11.6944 6.01295L13.3445 7.66352ZM5.28242 8.0578C4.95538 7.73069 4.73262 7.31349 4.64257 6.85996C4.55173 6.40643 4.59831 5.93631 4.77526 5.50885C4.9522 5.0814 5.25161 4.71636 5.63631 4.45878C6.02101 4.20199 6.47282 4.06451 6.93573 4.06451H6.93732C7.24697 4.06372 7.55426 4.12535 7.84022 4.24545C8.12697 4.36555 8.3853 4.54174 8.60253 4.76377L9.66498 5.84387L6.51236 8.99646L6.3654 9.14184L5.28242 8.0578Z" fill="#274645"/>
</svg>
