<svg width="68" height="68" viewBox="0 0 68 68" fill="none" xmlns="http://www.w3.org/2000/svg">
<path d="M62.5915 5.68584H41.6629C40.5814 2.86218 37.8435 0.851868 34.6443 0.851868H20.6071C16.4654 0.851868 13.0955 4.22254 13.0955 8.36515V16.8969C12.2582 17.6183 11.8688 18.7474 12.0749 19.8836L12.6271 22.9208C12.8254 23.9638 13.3791 24.5003 13.8081 24.7657C14.2891 25.0636 14.8216 25.1616 15.3113 25.164V25.7036C15.3113 28.4422 16.9086 31.4605 19.6939 33.9841C20.2184 34.459 20.7635 34.8975 21.3188 35.2933V36.9218C21.3188 37.418 20.9649 37.8439 20.4775 37.9347C20.4546 37.9387 20.4325 37.9434 20.4096 37.949C20.393 37.9537 18.7246 38.389 16.5428 39.0077H9.41599C8.6142 39.0077 7.84165 39.3443 7.29501 39.9306C6.74916 40.5168 6.46794 41.3125 6.52561 42.1121L6.54457 42.3863C3.35717 43.9855 1.35151 46.8528 1.15956 50.1113C1.15956 50.1247 1.15877 50.1382 1.15798 50.1524L0.936797 63.5347C0.924948 64.516 1.29859 65.4413 1.98742 66.1398C2.67782 66.8382 3.5973 67.2222 4.5792 67.2222H50.6737C51.6548 67.2222 52.5751 66.8382 53.2647 66.1398C53.9535 65.4413 54.3272 64.5168 54.3153 63.5308L54.0941 50.1524C54.0933 50.1382 54.0933 50.1247 54.0918 50.1113C53.8959 46.7588 51.7788 43.8204 48.4279 42.2512C48.3671 42.2227 48.3023 42.1927 48.236 42.1635L48.2399 42.1121C48.2968 41.3125 48.0163 40.5176 47.4705 39.9306C46.9239 39.3443 46.1513 39.0077 45.3495 39.0077H38.7093C36.5283 38.389 34.8591 37.9537 34.8425 37.9497C34.8204 37.9434 34.7983 37.9387 34.7754 37.9347C34.2872 37.8439 33.9333 37.418 33.9333 36.9218V35.2941C34.4894 34.8975 35.0345 34.459 35.559 33.9841C37.3285 32.3802 38.6192 30.5763 39.3246 28.7717H45.6394L44.5367 33.2256C44.3526 33.9683 44.6473 34.7189 45.2871 35.1377C45.5881 35.3344 45.9254 35.4324 46.2611 35.4324C46.6403 35.4324 47.0179 35.3076 47.3402 35.0603L55.5239 28.7717H62.5915C65.1525 28.7717 67.2355 26.6881 67.2355 24.1265V10.331C67.2355 7.77019 65.1525 5.68584 62.5915 5.68584ZM39.9432 18.5767C40.3144 18.4503 40.666 18.3981 40.8958 18.3768C41.2008 18.6478 41.3445 19.0942 41.2647 19.5359L40.7157 22.5573C40.6359 22.9793 40.474 23.0796 40.4211 23.1128C40.3081 23.1823 40.1414 23.2187 39.9416 23.2203L39.9432 18.5767ZM15.0396 8.36515C15.0396 5.29473 17.5374 2.79628 20.6071 2.79628H34.6451C37.7148 2.79628 40.2125 5.29473 40.2125 8.36515V16.5113C39.7315 16.5967 39.1327 16.7594 38.5481 17.0715V11.1472C38.5481 9.017 36.815 7.28347 34.6853 7.28347H32.0588C31.148 7.28347 30.2585 7.6011 29.5531 8.1771L29.2964 8.38807C28.8264 8.77207 28.2331 8.98382 27.6257 8.98382C27.019 8.98382 26.4257 8.77207 25.9565 8.38886L25.699 8.1771C24.9936 7.6011 24.1041 7.28347 23.1933 7.28347H20.5668C18.4371 7.28347 16.704 9.01621 16.704 11.1472V17.0707C16.1194 16.7594 15.5206 16.5959 15.0396 16.5113V8.36515ZM14.8318 23.1128C14.7781 23.0796 14.6162 22.9793 14.538 22.566L13.9874 19.5359C13.9076 19.095 14.0514 18.6494 14.3555 18.3776C14.5854 18.3981 14.9377 18.4495 15.3097 18.5759L15.3105 23.2203C15.1115 23.2187 14.9448 23.1823 14.8318 23.1128ZM6.23176 64.5737C6.23176 64.8179 6.26493 65.0533 6.32655 65.2777H4.5792C4.12103 65.2777 3.69289 65.0984 3.37059 64.7728C3.04909 64.4473 2.8753 64.0159 2.88083 63.5624L3.10202 50.2053C3.24578 47.8713 4.53892 45.847 6.69703 44.5236L7.88352 61.177C7.90564 61.4828 7.97515 61.7751 8.08495 62.0469C7.01142 62.3851 6.23176 63.3901 6.23176 64.5737ZM46.8812 61.177L48.0866 44.2549C50.526 45.5642 51.9968 47.7062 52.1509 50.2053L52.3721 63.5584C52.3768 64.0159 52.203 64.4473 51.8815 64.7728C51.56 65.0984 51.1311 65.2777 50.6737 65.2777H48.9256C48.988 65.0533 49.0211 64.8179 49.0211 64.5737C49.0211 63.2297 48.0163 62.1172 46.7185 61.9482C46.8062 61.704 46.8622 61.4464 46.8812 61.177ZM47.0771 64.5737C47.0771 64.9617 46.7611 65.2777 46.3733 65.2777H8.87884C8.49098 65.2777 8.17579 64.9617 8.17579 64.5737C8.17579 64.1858 8.49098 63.8697 8.87884 63.8697H46.3733C46.7611 63.8697 47.0771 64.1858 47.0771 64.5737ZM46.0478 41.2556C46.2303 41.4516 46.3203 41.7068 46.3006 41.9738L44.9419 61.0395C44.9064 61.5365 44.4893 61.9252 43.9908 61.9252H10.7739C10.2762 61.9252 9.85836 61.5365 9.82281 61.0387L8.46413 41.9738C8.44517 41.7068 8.53522 41.4516 8.7177 41.2556C8.90017 41.0597 9.1482 40.9522 9.41599 40.9522H45.3495C45.6173 40.9522 45.8653 41.0597 46.0478 41.2556ZM32.8432 39.0077H22.4089C22.9405 38.4665 23.2628 37.7261 23.2628 36.9218V36.4872C24.7953 37.2805 26.3183 37.7253 27.6257 37.7253C28.9338 37.7253 30.456 37.2805 31.9893 36.4872V36.9218C31.9893 37.7261 32.3116 38.4665 32.8432 39.0077ZM34.2532 32.5429C32.0833 34.5103 29.482 35.7808 27.6257 35.7808C25.7709 35.7808 23.1696 34.5103 20.9989 32.5429C18.6196 30.3875 17.2554 27.8946 17.2554 25.7036L17.2538 19.5786C17.2664 19.5786 17.279 19.5786 17.2917 19.5786C17.467 19.5786 17.644 19.5446 17.8138 19.4735C18.321 19.2617 18.648 18.7703 18.648 18.2212V11.1472C18.648 10.0892 19.509 9.22796 20.5668 9.22796H23.1941C23.657 9.22796 24.1096 9.38994 24.4683 9.68308L24.7258 9.89404C25.5426 10.5609 26.5719 10.9283 27.6257 10.9283C28.6802 10.9283 29.7103 10.5609 30.5263 9.89325L30.7838 9.68308C31.1425 9.38994 31.5951 9.22796 32.0588 9.22796H34.6853C35.7431 9.22796 36.6041 10.0892 36.6041 11.1472V18.2212C36.6041 18.7703 36.9311 19.2617 37.4383 19.4735C37.62 19.5493 37.8103 19.5833 37.9983 19.5786L37.9968 25.7036C37.9975 27.8946 36.6325 30.3875 34.2532 32.5429ZM65.2915 24.1265C65.2915 25.6159 64.0805 26.8272 62.5915 26.8272H55.1945C54.9797 26.8272 54.7719 26.8983 54.6021 27.0287L46.54 33.2232L47.8252 28.0337C47.8971 27.7437 47.8315 27.4364 47.6474 27.2009C47.4634 26.9655 47.1806 26.8272 46.882 26.8272H39.8547C39.9124 26.4495 39.9416 26.0742 39.9416 25.7036V25.164C40.4306 25.1616 40.9638 25.0636 41.444 24.7657C41.8738 24.5003 42.4275 23.9638 42.6274 22.9129L43.1772 19.8836C43.3841 18.7474 42.9939 17.6183 42.1566 16.8969V8.36515C42.1566 8.11784 42.1447 7.87212 42.121 7.63034H62.5915C64.0805 7.63034 65.2915 8.8416 65.2915 10.331V24.1265Z" fill="#274645"/>
</svg>
